<?xml version="1.0" encoding="UTF-8"?><svg id="Layer_2" xmlns="http://www.w3.org/2000/svg" viewBox="0 0 522.03 367.5"><defs><style>.cls-1{fill:#3ba95b;}.cls-2{font-family:Avenir-Roman, Avenir;font-size:36px;}.cls-2,.cls-3{fill:#fff;}.cls-4{letter-spacing:0em;}.cls-5{fill:#f7be1c;}.cls-6{fill:#f8bd1c;}.cls-7{fill:#5a81c1;}.cls-8{fill:#e54c3f;}</style></defs><g id="Layer_1-2"><path class="cls-8" d="M163.77,176.77c-.13,8.37,1.99,23.84-3.54,30.35-3.41,3.96-9.12,4.24-14.01,4.16-4.41-.12-8.96-.33-12.23-2.46-4.55-2.92-5.11-8.97-5.25-13.99-.11-7.99-.08-15.88-.04-23.86-.23-12.71,3.26-19.47,17.3-19.25,18.17-.15,17.41,10.03,17.76,24.86v.19Z"/><path class="cls-5" d="M221.01,190.46c1.51,19.54-3.59,21.22-22.17,20.41-13.84-.29-13.08-7.75-12.98-18.96.08-4.83-.29-9.81,2.42-12.81,5.07-4.75,13.46-3.78,19.9-3.63,10.47.77,12.76,4.64,12.81,14.81v.19Z"/><path class="cls-6" d="M220.98,125.38c.27,6.29.32,12.78.1,19.13-.4,13.52-6.87,16.11-19.24,15.29-11.88-.03-15.89-3.65-15.89-15.41-.08-9.37-.1-18.62,0-27.99.06-2.3.19-4.7.74-6.92,1.39-7.25,8.63-9.3,15.53-9.15,4.18.02,8.68.1,12.49,1.95,7.92,4.12,5.48,15.25,6.26,22.92v.19Z"/><path class="cls-1" d="M278.15,180c.19,6.39.54,13.25-.22,19.83-1.08,9.83-8.45,11.58-17.33,11.16-17.62.25-17.69-6.38-17.54-21.73-.01-4.95-.01-9.9.03-14.85-.13-6.96.96-14.1,8.18-15.97,6.36-1.62,18.68-2.03,23.44,2.86,4.1,4.45,2.94,12.52,3.44,18.52v.19Z"/><path class="cls-1" d="M278.15,118.47c.21,5.02.48,10.59-.16,15.68-.84,8.05-8.11,9.26-15.21,9.06-9.35-.36-20.08,1.3-19.67-11.55-.08-6.49-.1-13.05.01-19.52-.27-8.74,5.05-11.42,13-11.73,6.2.06,14.94-1.04,19.63,3.8,2.82,3.52,1.94,9.51,2.4,14.07v.18Z"/><path class="cls-1" d="M278.16,65.57c1.46,19.88-2.61,21.14-21.74,20.42-6.17-.05-12.99-1.18-13.21-8.7-.29-4.97-.13-10.06-.13-15.04.09-2.89.14-6.12,2.19-8.34,5.13-4.5,13.06-3.39,19.4-3.42,11.54.71,13.38,3.53,13.48,14.89v.18Z"/><path class="cls-7" d="M335.53,186.28c.28,13.89,2.51,25.39-15.96,24.73-9.75-.09-19.2.19-19.08-12.34-.1-5.95-.13-11.97.01-17.93-.09-8.42,4.49-11.92,12.54-12.44,6.42-.17,14.26-.98,19.4,3.55,3.3,3.41,2.75,9.51,3.08,14.25v.19Z"/><path class="cls-7" d="M335.51,114.59c.22,5.96.29,11.98.17,18.2-.12,5.44-.57,12.17-4.18,15.96-4.63,4.84-12.62,3.93-18.83,3.49-10.65-.78-12.28-8.88-12.22-18.53-.06-8.65-.06-17.23,0-25.87.11-5.66,0-12.47,4.04-16.76,4.9-5.19,18.16-5.08,24.55-1.72,8.02,4.95,5.71,16.7,6.46,25.05v.19Z"/><path class="cls-7" d="M335.51,30.02c.2,6.88.32,13.78.13,20.91-.07,8.58-2.02,18.87-11.77,20.2-16.16,1.77-23.36-1.98-23.38-18.79-.02-12.07-.36-24.12.22-36.19.37-4.17,1.25-8.59,4.07-11.69,5-5.35,15.41-5.37,22.35-2.73,10.15,4.68,7.61,18.78,8.37,28.1v.19Z"/><path class="cls-3" d="M62.58,234.86c6.75.07,11.01,5.57,7.48,11.81-2.92,4.48-9.1,5.95-14.02,4.44-2.91-.81-5.04-3.36-5.08-6.43-.57-6.07,6.21-9.82,11.43-9.82h.19Z"/><path class="cls-3" d="M432.18,265.07c.4-.51.81-1,1.19-1.52,3.36-4.62,7.9-7.01,13.6-7.11,2.33-.04,4.69-.09,6.98.26,8.13,1.24,12.57,6.48,12.65,15.6.06,6.72-.52,13.45-.98,20.17-.5,7.22-1.28,14.42-1.75,21.64-.15,2.33-1.12,3.07-3.27,2.86-3.04-.3-6.14-.28-9.12-.87-3.04-.6-4.73-2.98-4.71-5.98.03-5.23.39-10.46.73-15.68.35-5.39,1.05-10.77,1.2-16.17.18-6.73-5.42-9.79-11.24-6.28-4.79,2.88-6.57,7.74-7.15,12.84-1.12,9.74-1.84,19.54-2.52,29.32-.15,2.17-.75,3.01-2.92,2.81-2.73-.26-5.52-.1-8.19-.6-3.67-.69-5.81-3-5.85-6.75-.05-5.55.3-11.12.69-16.67.66-9.37,1.56-18.73,2.24-28.11.61-8.55,1.06-17.1,1.57-25.66.1-1.65.65-2.7,2.57-2.53,2.81.25,5.67.17,8.42.68,4.03.75,6.4,3.35,6.42,7.44.02,5.56-.48,11.12-.77,16.68-.06,1.15-.17,2.31-.25,3.46.16.05.32.1.48.15Z"/><path class="cls-3" d="M214.83,293.57c-.12,5.11,2.12,8.85,6.07,10.35,4.26,1.61,8.54.63,11.37-2.61,3.1-3.57,8.43-2.74,10.61,1.64,1.62,3.27.86,7.1-2.08,9.73-3.42,3.05-7.62,4.28-12.04,4.93-5.84.86-11.63.58-17.25-1.26-7.93-2.6-12.91-8.06-14.57-16.21-2.2-10.79-.37-21.04,5.24-30.46,4.92-8.27,12.69-12.35,22.05-13.05,4.32-.32,8.84.05,13.08.97,5.78,1.26,9.75,5.07,10.89,11.05,1.25,6.54-.21,12.43-5.48,16.91-5.76,4.9-12.79,6.47-20.04,7.35-2.55.31-5.11.44-7.85.67ZM214.95,284.87c4.29.09,8.18-.63,11.74-2.76,2.57-1.55,3.84-3.81,3.33-6.89-.38-2.28-1.64-3.78-3.9-4.3-2.96-.69-5.37.31-7.24,2.65-2.58,3.23-3.4,7.06-3.93,11.3Z"/><path class="cls-3" d="M302.22,255c-.37,5.17-.73,10.12-1.12,15.53,2.8,0,5.42,0,8.03,0,2.25,0,4.5,0,6.74,0,1.45,0,2.48.48,2.36,2.15-.19,2.49-.26,5-.68,7.45-.59,3.39-2.48,5.04-5.98,5.27-2.99.2-5.99.26-8.98.15-1.93-.07-2.63.57-2.73,2.49-.47,8.22-1.04,16.44-1.6,24.65-.09,1.32-.27,2.64-.47,4.48-4.05-.27-8.04-.21-11.92-.87-3.91-.67-6.1-3.48-5.99-7.47.22-7.64.66-15.29,1.19-22.92.86-12.28,1.87-24.55,2.8-36.82.17-2.24.42-4.48.42-6.72,0-1.78.8-2.4,2.44-2.3.17.01.33,0,.5,0,11.91,0,23.81.03,35.72-.03,2.14-.01,3.1.7,2.84,2.92-.25,2.15-.28,4.32-.56,6.46-.47,3.52-2.73,5.46-6.54,5.55-4.49.1-8.99.04-13.49.04-.9,0-1.8,0-2.97,0Z"/><path class="cls-3" d="M378.36,318.04c-5.93-.15-11.78-.81-17.26-3.27-5.15-2.3-6.25-6.03-3.31-10.68,2.12-3.34,4.59-4.06,8.01-2.03,4.51,2.67,9.32,3.55,14.37,2.41,1.31-.3,3.11-1.53,3.35-2.63.26-1.17-.78-2.98-1.78-3.98-1.13-1.12-2.82-1.7-4.32-2.38-2.11-.96-4.3-1.75-6.42-2.71-11.73-5.3-15.02-19.48-6.34-29,2.44-2.67,6.15-4.61,9.65-5.78,6.98-2.33,14.21-2.63,21.2.38,5.26,2.26,8.02,7.58,6.89,12.99-1.09,5.19-7.51,9.1-12.54,7.43-.69-.23-1.37-1.65-1.39-2.53-.13-5.66-4.81-7.18-9.2-5.75-2.01.65-3.55,1.97-3.84,4.18-.28,2.13.84,3.77,2.61,4.73,2.25,1.22,4.68,2.1,6.99,3.22,3.28,1.59,6.79,2.88,9.72,4.96,9.61,6.84,8.28,22.06-2.18,27.49-4.49,2.33-9.27,3.03-14.24,2.95Z"/><path class="cls-3" d="M19.09,301.95c6.27,0,12.17,0,18.07,0,3.18,0,3.43.31,3.08,3.49-.23,2.06-.26,4.16-.64,6.19-.65,3.46-2.48,5.17-5.96,5.22-8.33.12-16.66.24-24.98-.03-5.96-.19-8.8-3.27-8.66-9.32.17-7.4.74-14.79,1.27-22.17.87-12.2,1.86-24.38,2.79-36.58.18-2.32.2-4.67.53-6.96.09-.64,1.04-1.63,1.62-1.64,3.07-.07,6.19-.21,9.2.28,5.46.88,7.62,3.59,7.29,9.15-.72,12.04-1.65,24.07-2.48,36.11-.37,5.3-.73,10.6-1.12,16.26Z"/><path class="cls-3" d="M83.35,271.93c-1.89,0-3.49.17-5.02-.08-.69-.11-1.76-1.02-1.78-1.59-.07-2.4.03-4.83.38-7.21.52-3.53,2.25-5.17,5.73-5.48,1.39-.12,1.99-.59,2.44-1.88,1.2-3.45,2.47-6.88,3.93-10.22.71-1.62.94-3.89,3.52-3.96,3.47-.1,7.26-.32,8.84,3.51,1.04,2.51,1.07,5.46,1.37,8.23.14,1.28-.16,2.6-.28,4.24,3.63,0,7.02.09,10.41-.03,2.12-.08,2.88.7,2.61,2.77-.23,1.73-.18,3.49-.43,5.22-.66,4.6-2.62,6.33-7.28,6.47-2.07.06-4.15.01-6.48.01-.28,2.49-.59,4.85-.79,7.22-.49,5.8-.95,11.61-1.38,17.41-.08,1.07,0,2.17.13,3.24.38,3.34,2.4,4.34,5.39,2.67.58-.32,1.11-.74,1.67-1.09,2.47-1.57,3.53-1.07,4,1.85,1.32,8.21-3.59,14.34-11.88,14.66-2.39.09-4.84,0-7.19-.39-6.31-1.06-10.16-5.16-10.17-11.62-.01-6.63.66-13.27,1.11-19.91.31-4.56.75-9.11,1.17-14.04Z"/><path class="cls-3" d="M145.86,257.49c3.84,0,7.24.06,10.64-.02,1.83-.05,2.61.62,2.4,2.49-.24,2.15-.27,4.32-.58,6.46-.5,3.51-2.79,5.32-6.9,5.49-2.22.1-4.46.02-6.88.02-.56,6.26-1.14,12.28-1.62,18.31-.24,2.98-.49,5.98-.41,8.96.1,3.99,2.35,5.06,5.81,3.12,1.3-.73,2.79-1.11,4.19-1.65.44,1.64,1.23,3.27,1.25,4.92.07,7.16-3.93,11.66-11.07,12.24-3.03.24-6.17.01-9.17-.52-5.14-.91-8.69-5.04-9.01-10.54-.23-3.96-.03-7.97.24-11.93.46-6.72,1.14-13.42,1.7-20.13.07-.81,0-1.64,0-2.77-1.57,0-3.04-.07-4.51.02-1.61.09-2.32-.5-2.17-2.16.22-2.39.15-4.84.59-7.19.62-3.28,2.3-4.77,5.61-5.01,1.57-.11,2.09-.76,2.55-2.09,1.17-3.37,2.41-6.72,3.82-10,.77-1.78,1.08-4.09,3.98-4.04,3.53.06,7.11.12,8.62,3.97.82,2.09.92,4.5,1.1,6.79.13,1.62-.12,3.28-.22,5.26Z"/><path class="cls-3" d="M164.47,303.95c.54-6.37,1.12-12.75,1.62-19.12.81-10.37,1.58-20.74,2.34-31.11.36-4.9.67-9.8.92-14.7.08-1.64.65-2.52,2.4-2.36,2.97.26,6.02.13,8.88.83,4.22,1.02,6.34,3.88,6.19,8.21-.22,6.56-.75,13.12-1.22,19.67-.74,10.29-1.62,20.56-2.28,30.86-.34,5.3.29,5.9,5.09,7.99.65.28,1.26,1.68,1.17,2.48-.91,8.56-6.61,12.57-15.5,11.05-5.53-.94-8.52-4.38-9.13-10.54-.11-1.08-.14-2.16-.21-3.24-.09,0-.18-.01-.27-.02Z"/><path class="cls-3" d="M56.42,257.49c.75,0,1.5,0,2.25,0,6.65.13,9.81,3.25,9.63,9.95-.14,5.48-.63,10.95-1.04,16.42-.74,9.86-1.58,19.71-2.3,29.58-.25,3.41-.25,3.52-3.59,3.51-1.66,0-3.33,0-4.99-.11-5.9-.41-8.63-3.09-8.77-8.99-.09-3.65.19-7.31.47-10.95.9-12.1,1.97-24.19,2.74-36.29.17-2.74,1.18-3.47,3.61-3.14.65.09,1.33.01,1.99.02Z"/><path class="cls-3" d="M338.11,257.49c9.39,0,12.04,2.48,11.6,11.83-.49,10.28-1.43,20.54-2.19,30.81-.36,4.8-.83,9.6-1.12,14.41-.11,1.78-.72,2.56-2.57,2.42-2.56-.19-5.18,0-7.7-.41-4.51-.72-6.86-3.25-6.76-7.83.16-7.63.67-15.26,1.17-22.88.52-7.96,1.25-15.9,1.77-23.85.29-4.49.18-4.5,4.55-4.5h1.25Z"/><path class="cls-3" d="M343.48,234.86c6.75.07,11.01,5.57,7.48,11.81-2.92,4.48-9.1,5.95-14.02,4.44-2.91-.81-5.04-3.36-5.08-6.43-.57-6.07,6.21-9.82,11.43-9.82h.19Z"/><text class="cls-2" transform="translate(335.76 353.17)"><tspan x="0" y="0">Accoun</tspan><tspan class="cls-4" x="121.46" y="0">t</tspan><tspan x="134.17" y="0">ing</tspan></text></g></svg>